<svg version="1.1" id="Layer_1" xmlns="http://www.w3.org/2000/svg" xmlns:xlink="http://www.w3.org/1999/xlink" x="0px" y="0px"
	 width="308.7612359841165" height="304.915625" viewBox="0 0 499 500" enable-background="new 0 0 499 500" xml:space="preserve">
<path fill="#FE3938" opacity="1.000000" stroke="none" 
	d="
M500.000000,236.000000 
	C500.000000,246.354233 500.000000,256.708466 499.617065,267.261993 
	C498.481628,271.397034 497.667328,275.322174 496.988068,279.270508 
	C494.855896,291.664459 493.911682,304.401947 490.384888,316.381531 
	C486.001343,331.271149 480.428253,345.988068 473.651489,359.945740 
	C466.851532,373.951233 459.175598,387.897522 449.630798,400.108917 
	C438.418854,414.453186 425.190735,427.326721 412.033905,440.004700 
	C404.570404,447.196625 395.786438,453.158783 387.069641,458.869568 
	C378.555847,464.447357 369.592377,469.459869 360.421875,473.881653 
	C350.323883,478.750702 340.016083,483.473572 329.341888,486.783875 
	C316.638733,490.723328 303.505676,493.373199 290.447021,496.032196 
	C283.103394,497.527496 275.534149,497.914551 267.959991,498.495605 
	C259.796967,498.126556 251.739960,497.990540 243.684280,498.045929 
	C241.454346,498.061249 239.228317,498.645386 236.744781,498.938171 
	C236.319275,498.933319 236.149506,498.958832 235.741486,498.966187 
	C235.503235,498.947968 235.026535,498.981750 235.011444,498.990295 
	C234.996368,498.998810 235.011261,498.967072 234.783020,498.674713 
	C231.695877,498.270691 228.836960,498.159027 225.518951,498.015289 
	C214.363358,496.437195 203.433075,495.798523 193.028778,493.118164 
	C179.665619,489.675507 166.540634,485.072266 153.642517,480.112183 
	C130.415039,471.179901 109.434044,458.153839 90.707222,441.877075 
	C79.924446,432.505096 69.547241,422.412231 60.433846,411.442261 
	C50.465961,399.443665 41.230659,386.601929 33.411896,373.120911 
	C26.130322,360.566071 20.475061,346.935242 15.334841,333.313538 
	C11.282629,322.575104 8.626539,311.230988 6.245458,299.966644 
	C4.458921,291.514954 4.142323,282.756378 3.018064,274.154480 
	C2.914480,273.361938 1.699118,272.714691 1.000001,272.000000 
	C1.000000,267.975464 1.000000,263.950897 1.348102,259.216431 
	C1.464136,253.671021 1.232068,248.835510 1.000000,244.000000 
	C1.000000,239.975449 1.000000,235.950912 1.402192,231.683533 
	C2.549052,227.342896 3.293111,223.244995 4.038502,219.147324 
	C6.137766,207.606964 7.281429,195.785339 10.573947,184.596069 
	C14.900518,169.892700 19.615696,155.263901 26.886251,141.506912 
	C33.949490,128.142197 41.236641,114.997086 50.576035,103.124611 
	C57.046741,94.898888 63.929947,86.980118 70.929222,79.194237 
	C75.185982,74.459091 79.787575,69.971970 84.632614,65.840599 
	C94.580666,57.357872 104.796196,49.330265 115.905434,42.210926 
	C129.463333,33.522358 143.700714,26.432480 158.362335,20.175861 
	C177.115616,12.173187 197.010666,7.961049 217.138931,5.157927 
	C226.080582,3.912684 235.162674,3.408415 244.196564,3.178300 
	C251.283600,2.997775 258.396271,3.724523 265.494293,4.107899 
	C270.466309,4.376447 275.462524,4.510386 280.394318,5.130590 
	C286.275665,5.870209 292.197784,6.680217 297.929016,8.139782 
	C311.440643,11.580763 325.108185,14.694004 338.220551,19.331213 
	C349.294647,23.247589 359.985901,28.563925 370.280426,34.280216 
	C381.061798,40.266850 391.853821,46.622890 401.396240,54.354057 
	C413.340698,64.031319 424.423798,74.882446 435.101013,85.975395 
	C442.636536,93.804283 449.427032,102.502159 455.579834,111.477249 
	C467.083618,128.257736 476.626160,146.222946 483.452789,165.416122 
	C487.299133,176.230316 490.489624,187.370697 492.826355,198.603226 
	C495.247192,210.240051 496.246277,222.170731 497.994019,233.954056 
	C498.107391,234.718414 499.306152,235.321762 500.000000,236.000000 
M171.998779,308.001221 
	C171.998779,308.001221 172.009232,307.980255 172.206085,308.442291 
	C172.479828,308.624420 172.753555,308.806549 172.998672,309.001221 
	C172.998672,309.001221 173.011475,308.972778 173.202805,309.435791 
	C173.471298,309.623779 173.739792,309.811798 173.999390,310.000885 
	C173.999390,310.000885 174.001450,309.992096 174.074020,310.635590 
	C174.723175,311.087616 175.372330,311.539642 175.998108,312.002441 
	C175.998108,312.002441 176.004120,311.977264 176.222214,312.444244 
	C176.504517,312.629852 176.786819,312.815430 177.505966,313.161102 
	C177.780899,313.343933 177.946198,313.598083 178.203995,314.401581 
	C178.481140,314.598328 178.758286,314.795105 178.996353,315.003571 
	C178.996353,315.003571 179.008255,314.964569 179.216217,315.428253 
	C179.493195,315.612793 179.770172,315.797333 179.999146,316.000946 
	C179.999146,316.000946 180.017822,315.952789 180.218445,316.419769 
	C180.492432,316.608795 180.766434,316.797821 180.998535,317.001221 
	C180.998535,317.001221 181.020050,316.962463 181.093521,317.605560 
	C181.735703,318.069580 182.377869,318.533600 182.996780,319.002441 
	C182.996780,319.002441 183.002792,318.979523 183.088577,319.619049 
	C183.733414,320.077118 184.378250,320.535217 184.996948,321.002716 
	C184.996948,321.002716 185.002655,320.975586 185.215729,321.442719 
	C185.494888,321.630737 185.774048,321.818787 186.487686,322.171173 
	C186.759628,322.352295 186.932678,322.601959 187.213531,323.409607 
	C187.501724,323.603851 187.789902,323.798126 188.501434,324.190155 
	C188.766846,324.384552 188.928619,324.643646 189.198151,325.437836 
	C189.476700,325.629395 189.755249,325.820953 190.474426,326.181030 
	C190.751572,326.364655 190.926086,326.618774 191.214554,327.424652 
	C191.503113,327.615204 191.791672,327.805756 192.508972,328.175659 
	C192.778961,328.363678 192.940811,328.619995 193.202362,329.416046 
	C193.480347,329.607452 193.758347,329.798889 193.996826,330.003052 
	C193.996826,330.003052 194.009827,329.963654 194.216080,330.433289 
	C194.492371,330.624939 194.768661,330.816589 195.488281,331.148193 
	C195.766602,331.323181 195.941513,331.571075 196.215179,332.376892 
	C196.496414,332.575348 196.777649,332.773834 197.001785,332.996399 
	C197.001785,332.996399 197.030563,332.941559 197.218338,333.413696 
	C197.488846,333.607483 197.759338,333.801239 197.995483,334.003510 
	C197.995483,334.003510 198.005676,333.969543 198.209290,334.435822 
	C198.482483,334.627594 198.755661,334.819397 199.472290,335.190460 
	C199.750793,335.381073 199.922684,335.641968 200.197800,336.434906 
	C200.472153,336.622345 200.746521,336.809753 200.997070,337.002808 
	C200.997070,337.002808 201.002808,336.979126 201.212860,337.444672 
	C201.490372,337.631927 201.767899,337.819214 202.723190,338.353119 
	C207.141663,338.301575 211.560120,338.250031 216.572189,338.799988 
	C226.024643,338.828369 235.477081,338.856750 245.742310,339.018127 
	C251.126312,338.646606 256.510315,338.275116 261.884247,337.904297 
	C261.884247,326.315765 261.884247,315.358948 261.884247,304.258087 
	C260.539795,303.956329 259.306488,303.430756 258.079285,303.444519 
	C250.289825,303.532196 242.492767,303.567841 234.716721,303.974609 
	C230.460266,304.197266 228.866302,302.979156 228.976089,298.431122 
	C229.253067,286.956879 228.996674,275.469788 228.838104,263.467072 
	C228.575775,263.234161 228.313446,263.001251 227.353394,262.314789 
	C227.034988,262.229156 226.717392,262.071686 226.398087,262.068176 
	C207.070847,261.856659 187.743546,261.646271 168.415680,261.529419 
	C167.969849,261.526703 167.517532,262.592712 167.080429,263.625092 
	C167.080429,263.625092 167.166138,264.082153 167.020218,264.073212 
	C167.020218,264.073212 166.918167,263.968567 166.392349,264.616302 
	C166.260132,276.005035 166.102097,287.393585 166.037842,298.782715 
	C166.031784,299.856018 166.615677,300.932648 167.198105,302.327118 
	C167.343796,302.574127 167.540619,302.769653 167.942307,303.408875 
	C167.966553,303.579987 167.990814,303.751129 168.175339,304.411896 
	C168.449478,304.606415 168.723618,304.800934 169.000610,304.998810 
	C169.000610,304.998810 169.004608,305.001770 169.213089,305.463776 
	C169.490936,305.645630 169.768799,305.827484 170.491898,306.173218 
	C170.772583,306.360504 170.938843,306.620850 171.190948,307.424866 
	C171.467178,307.613556 171.743408,307.802246 171.998779,308.001221 
M332.300507,158.814926 
	C332.151703,158.586304 332.002899,158.357681 331.421570,158.049423 
	C331.421570,158.049423 330.995636,157.939972 330.362732,157.405609 
	C329.552216,157.263916 328.741791,156.998550 327.931213,156.998245 
	C283.004028,156.980911 238.076859,156.975479 193.149765,157.037109 
	C191.777725,157.039001 190.406677,157.762650 189.075821,158.640320 
	C189.075821,158.640320 189.174850,159.122437 189.014954,160.029694 
	C189.040054,172.304138 189.065170,184.578598 189.626511,197.486359 
	C191.756577,197.666946 193.886368,198.000793 196.016754,198.004593 
	C218.970718,198.045441 241.926132,198.164413 264.877747,197.930405 
	C269.612244,197.882141 271.074951,199.097778 271.052185,203.973404 
	C270.867462,243.559875 270.944977,283.147675 270.997406,322.734985 
	C271.000214,324.837494 271.497345,326.939331 271.862946,329.766144 
	C271.835632,330.495728 271.808319,331.225342 271.355438,332.533264 
	C271.497986,334.357117 271.640533,336.181000 272.216583,338.702271 
	C274.757172,338.614471 277.389984,338.050690 279.822174,338.522156 
	C289.779755,340.452332 297.429749,337.513763 304.273254,329.803894 
	C312.625427,320.394409 322.027222,311.916626 331.368896,302.881287 
	C331.368896,302.881287 331.788147,302.932922 332.444763,302.412720 
	C332.646667,300.786255 333.023712,299.159943 333.024902,297.533325 
	C333.056610,253.763382 333.058929,209.993393 333.016541,166.223465 
	C333.014801,164.451843 332.529388,162.680679 332.131836,160.427917 
	C332.097748,160.264557 332.063690,160.101196 331.991394,159.474823 
	C331.991394,159.474823 332.007996,159.010513 332.300507,158.814926 
z"/>
<path fill="#000000" opacity="1.000000" stroke="none" 
	d="
M500.000000,235.531342 
	C499.306152,235.321762 498.107391,234.718414 497.994019,233.954056 
	C496.246277,222.170731 495.247192,210.240051 492.826355,198.603226 
	C490.489624,187.370697 487.299133,176.230316 483.452789,165.416122 
	C476.626160,146.222946 467.083618,128.257736 455.579834,111.477249 
	C449.427032,102.502159 442.636536,93.804283 435.101013,85.975395 
	C424.423798,74.882446 413.340698,64.031319 401.396240,54.354057 
	C391.853821,46.622890 381.061798,40.266850 370.280426,34.280216 
	C359.985901,28.563925 349.294647,23.247589 338.220551,19.331213 
	C325.108185,14.694004 311.440643,11.580763 297.929016,8.139782 
	C292.197784,6.680217 286.275665,5.870209 280.394318,5.130590 
	C275.462524,4.510386 270.466309,4.376447 265.494293,4.107899 
	C258.396271,3.724523 251.283600,2.997775 244.196564,3.178300 
	C235.162674,3.408415 226.080582,3.912684 217.138931,5.157927 
	C197.010666,7.961049 177.115616,12.173187 158.362335,20.175861 
	C143.700714,26.432480 129.463333,33.522358 115.905434,42.210926 
	C104.796196,49.330265 94.580666,57.357872 84.632614,65.840599 
	C79.787575,69.971970 75.185982,74.459091 70.929222,79.194237 
	C63.929947,86.980118 57.046741,94.898888 50.576035,103.124611 
	C41.236641,114.997086 33.949490,128.142197 26.886251,141.506912 
	C19.615696,155.263901 14.900518,169.892700 10.573947,184.596069 
	C7.281429,195.785339 6.137766,207.606964 4.038502,219.147324 
	C3.293111,223.244995 2.549052,227.342896 1.402192,231.220337 
	C1.000000,154.368134 1.000000,77.736252 1.000000,1.052190 
	C167.223038,1.052190 333.446106,1.052190 500.000000,1.052190 
	C500.000000,79.020584 500.000000,157.041626 500.000000,235.531342 
z"/>
<path fill="#000000" opacity="1.000000" stroke="none" 
	d="
M268.066528,498.800873 
	C275.534149,497.914551 283.103394,497.527496 290.447021,496.032196 
	C303.505676,493.373199 316.638733,490.723328 329.341888,486.783875 
	C340.016083,483.473572 350.323883,478.750702 360.421875,473.881653 
	C369.592377,469.459869 378.555847,464.447357 387.069641,458.869568 
	C395.786438,453.158783 404.570404,447.196625 412.033905,440.004700 
	C425.190735,427.326721 438.418854,414.453186 449.630798,400.108917 
	C459.175598,387.897522 466.851532,373.951233 473.651489,359.945740 
	C480.428253,345.988068 486.001343,331.271149 490.384888,316.381531 
	C493.911682,304.401947 494.855896,291.664459 496.988068,279.270508 
	C497.667328,275.322174 498.481628,271.397034 499.617065,267.730652 
	C500.000000,345.593872 500.000000,423.187714 500.000000,501.000000 
	C422.312561,501.000000 344.624939,501.000000 266.253113,500.668396 
	C266.401428,499.824860 267.233978,499.312866 268.066528,498.800873 
z"/>
<path fill="#000000" opacity="1.000000" stroke="none" 
	d="
M235.979736,498.984375 
	C236.149506,498.958832 236.319275,498.933319 236.848099,499.320312 
	C237.138107,500.155212 237.069046,500.577606 237.000000,501.000000 
	C158.407394,501.000000 79.814789,501.000000 1.000000,501.000000 
	C1.000000,424.979248 1.000000,348.958282 1.000001,272.468658 
	C1.699118,272.714691 2.914480,273.361938 3.018064,274.154480 
	C4.142323,282.756378 4.458921,291.514954 6.245458,299.966644 
	C8.626539,311.230988 11.282629,322.575104 15.334841,333.313538 
	C20.475061,346.935242 26.130322,360.566071 33.411896,373.120911 
	C41.230659,386.601929 50.465961,399.443665 60.433846,411.442261 
	C69.547241,422.412231 79.924446,432.505096 90.707222,441.877075 
	C109.434044,458.153839 130.415039,471.179901 153.642517,480.112183 
	C166.540634,485.072266 179.665619,489.675507 193.028778,493.118164 
	C203.433075,495.798523 214.363358,496.437195 225.751343,498.361206 
	C229.298950,498.815186 232.155106,498.891113 235.011261,498.967072 
	C235.011261,498.967072 234.996368,498.998810 235.056091,499.233856 
	C235.403793,499.307404 235.691757,499.145874 235.979736,498.984375 
z"/>
<path fill="#CA3536" opacity="1.000000" stroke="none" 
	d="
M237.468658,501.000000 
	C237.069046,500.577606 237.138107,500.155212 237.103821,499.350677 
	C239.228317,498.645386 241.454346,498.061249 243.684280,498.045929 
	C251.739960,497.990540 259.796967,498.126556 267.959991,498.495605 
	C267.233978,499.312866 266.401428,499.824860 265.784424,500.668396 
	C256.645782,501.000000 247.291550,501.000000 237.468658,501.000000 
z"/>
<path fill="#F4ABAA" opacity="1.000000" stroke="none" 
	d="
M1.000000,244.466125 
	C1.232068,248.835510 1.464136,253.671021 1.348102,258.753265 
	C1.000000,254.310745 1.000000,249.621490 1.000000,244.466125 
z"/>
<path fill="#000000" opacity="1.000000" stroke="none" 
	d="
M330.975067,303.035889 
	C322.027222,311.916626 312.625427,320.394409 304.273254,329.803894 
	C297.429749,337.513763 289.779755,340.452332 279.822174,338.522156 
	C277.389984,338.050690 274.757172,338.614471 272.088440,337.928894 
	C271.900543,335.421997 271.840790,333.688477 271.781006,331.954926 
	C271.808319,331.225342 271.835632,330.495728 271.907623,328.938965 
	C271.964600,304.025146 272.004639,279.938507 271.980499,255.851959 
	C271.960846,236.253708 271.864258,216.655533 271.723022,196.619293 
	C244.457214,196.111221 217.270172,196.041183 190.043335,195.505814 
	C190.002960,183.066940 190.002380,171.093414 190.467987,159.069870 
	C236.220230,159.009750 281.506287,158.989075 326.792297,159.029648 
	C328.538330,159.031219 330.283844,159.621750 332.029602,159.937836 
	C332.063690,160.101196 332.097748,160.264557 332.098450,161.136429 
	C331.759491,168.582764 331.453918,175.320587 331.098877,182.523697 
	C331.024628,223.004623 330.999847,263.020264 330.975067,303.035889 
z"/>
<path fill="#000000" opacity="1.000000" stroke="none" 
	d="
M196.013000,331.891937 
	C195.941513,331.571075 195.766602,331.323181 195.192566,330.821350 
	C194.601181,330.317566 194.305496,330.140625 194.009827,329.963654 
	C194.009827,329.963654 193.996826,330.003052 193.941254,329.740173 
	C193.588623,329.299713 193.291580,329.122131 192.994522,328.944580 
	C192.940811,328.619995 192.778961,328.363678 192.217300,327.820831 
	C191.616394,327.291809 191.307175,327.117615 190.997955,326.943390 
	C190.926086,326.618774 190.751572,326.364655 190.188202,325.832062 
	C189.596893,325.311218 189.291809,325.139313 188.986740,324.967438 
	C188.928619,324.643646 188.766846,324.384552 188.220886,323.821350 
	C187.629181,323.275055 187.318008,323.097626 187.006836,322.920197 
	C186.932678,322.601959 186.759628,322.352295 186.193085,321.832275 
	C185.599869,321.320770 185.301254,321.148193 185.002655,320.975586 
	C185.002655,320.975586 184.996948,321.002716 184.911407,320.717651 
	C184.218170,319.948242 183.610474,319.463898 183.002792,318.979523 
	C183.002792,318.979523 182.996780,319.002441 182.919647,318.715332 
	C182.235031,317.939636 181.627533,317.451050 181.020050,316.962463 
	C181.020050,316.962463 180.998535,317.001221 180.950378,316.737793 
	C180.607422,316.300507 180.312622,316.126648 180.017822,315.952789 
	C180.017822,315.952789 179.999146,316.000946 179.947876,315.737427 
	C179.600510,315.304108 179.304382,315.134338 179.008255,314.964569 
	C179.008255,314.964569 178.996353,315.003571 178.944534,314.738312 
	C178.595764,314.289856 178.298798,314.106689 178.001831,313.923523 
	C177.946198,313.598083 177.780899,313.343933 177.206116,312.824615 
	C176.605560,312.317841 176.304840,312.147552 176.004120,311.977264 
	C176.004120,311.977264 175.998108,312.002441 175.912155,311.716705 
	C175.217957,310.951355 174.609695,310.471710 174.001450,309.992096 
	C174.001450,309.992096 173.999390,310.000885 173.942139,309.745239 
	C173.593750,309.317322 173.302612,309.145050 173.011475,308.972778 
	C173.011475,308.972778 172.998672,309.001221 172.942322,308.742828 
	C172.593719,308.316376 172.301468,308.148315 172.009232,307.980255 
	C172.009232,307.980255 171.998779,308.001221 171.943787,307.736359 
	C171.589401,307.299103 171.290024,307.126678 170.990646,306.954285 
	C170.938843,306.620850 170.772583,306.360504 170.191650,305.838165 
	C169.595810,305.335999 169.300217,305.168884 169.004608,305.001770 
	C169.004608,305.001770 169.000610,304.998810 168.927338,304.747955 
	C168.574387,304.305481 168.294724,304.113861 168.015060,303.922241 
	C167.990814,303.751129 167.966553,303.579987 167.941437,302.702362 
	C167.978043,289.355286 168.015503,276.714722 168.517426,264.043732 
	C188.972595,264.004791 208.963303,263.996307 228.954010,263.987823 
	C228.996674,275.469788 229.253067,286.956879 228.976089,298.431122 
	C228.866302,302.979156 230.460266,304.197266 234.716721,303.974609 
	C242.492767,303.567841 250.289825,303.532196 258.079285,303.444519 
	C259.306488,303.430756 260.539795,303.956329 261.884247,304.258087 
	C261.884247,315.358948 261.884247,326.315765 261.884247,337.904297 
	C256.510315,338.275116 251.126312,338.646606 245.120758,338.584381 
	C234.992340,338.166595 225.485458,338.182526 215.978592,338.198486 
	C211.560120,338.250031 207.141663,338.301575 202.303009,337.928040 
	C201.589478,337.328369 201.296143,337.153748 201.002808,336.979126 
	C201.002808,336.979126 200.997070,337.002808 200.934006,336.746887 
	C200.576614,336.318359 200.282288,336.145752 199.987961,335.973114 
	C199.922684,335.641968 199.750793,335.381073 199.177826,334.846008 
	C198.590805,334.324219 198.298248,334.146881 198.005676,333.969543 
	C198.005676,333.969543 197.995483,334.003510 197.946182,333.744446 
	C197.608109,333.304108 197.319336,333.122833 197.030563,332.941559 
	C197.030563,332.941559 197.001785,332.996399 196.967255,332.715881 
	C196.626160,332.254211 196.319580,332.073090 196.013000,331.891937 
z"/>
<path fill="#C14545" opacity="1.000000" stroke="none" 
	d="
M271.801788,197.057312 
	C271.864258,216.655533 271.960846,236.253708 271.980499,255.851959 
	C272.004639,279.938507 271.964600,304.025146 271.858337,328.576630 
	C271.497345,326.939331 271.000214,324.837494 270.997406,322.734985 
	C270.944977,283.147675 270.867462,243.559875 271.052185,203.973404 
	C271.074951,199.097778 269.612244,197.882141 264.877747,197.930405 
	C241.926132,198.164413 218.970718,198.045441 196.016754,198.004593 
	C193.886368,198.000793 191.756577,197.666946 189.609467,197.189636 
	C189.758759,196.868713 189.925095,196.844513 190.546890,196.902985 
	C217.935501,197.009552 244.868652,197.033432 271.801788,197.057312 
z"/>
<path fill="#B84540" opacity="1.000000" stroke="none" 
	d="
M331.148376,182.058411 
	C331.453918,175.320587 331.759491,168.582764 332.167206,161.377121 
	C332.529388,162.680679 333.014801,164.451843 333.016541,166.223465 
	C333.058929,209.993393 333.056610,253.763382 333.024902,297.533325 
	C333.023712,299.159943 332.646667,300.786255 332.165283,302.210327 
	C331.928833,263.106903 331.978851,224.205887 331.978333,185.304871 
	C331.978302,184.222717 331.437195,183.140564 331.148376,182.058411 
z"/>
<path fill="#F98889" opacity="1.000000" stroke="none" 
	d="
M332.010498,159.706329 
	C330.283844,159.621750 328.538330,159.031219 326.792297,159.029648 
	C281.506287,158.989075 236.220230,159.009750 190.261688,159.085358 
	C189.589203,159.150879 189.174850,159.122437 189.174850,159.122437 
	C189.174850,159.122437 189.075821,158.640320 189.519272,158.342285 
	C236.973694,158.009491 283.984650,157.974731 330.995636,157.939972 
	C330.995636,157.939972 331.421570,158.049423 331.678314,158.308716 
	C331.935059,158.568008 332.007996,159.010513 332.007996,159.010513 
	C332.007996,159.010513 331.991394,159.474823 332.010498,159.706329 
z"/>
<path fill="#DA4142" opacity="1.000000" stroke="none" 
	d="
M330.679199,157.672791 
	C283.984650,157.974731 236.973694,158.009491 189.498932,158.097031 
	C190.406677,157.762650 191.777725,157.039001 193.149765,157.037109 
	C238.076859,156.975479 283.004028,156.980911 327.931213,156.998245 
	C328.741791,156.998550 329.552216,157.263916 330.679199,157.672791 
z"/>
<path fill="#FFD7D7" opacity="1.000000" stroke="none" 
	d="
M331.098877,182.523697 
	C331.437195,183.140564 331.978302,184.222717 331.978333,185.304871 
	C331.978851,224.205887 331.928833,263.106903 331.836975,302.470428 
	C331.788147,302.932922 331.368896,302.881287 331.171997,302.958588 
	C330.999847,263.020264 331.024628,223.004623 331.098877,182.523697 
z"/>
<path fill="#D8413F" opacity="1.000000" stroke="none" 
	d="
M167.068253,263.160217 
	C167.517532,262.592712 167.969849,261.526703 168.415680,261.529419 
	C187.743546,261.646271 207.070847,261.856659 226.398087,262.068176 
	C226.717392,262.071686 227.034988,262.229156 227.233490,262.621094 
	C207.098480,263.005035 187.083374,263.082611 167.068253,263.160217 
z"/>
<path fill="#F4ABAA" opacity="1.000000" stroke="none" 
	d="
M167.074341,263.392639 
	C187.083374,263.082611 207.098480,263.005035 227.582367,262.847900 
	C228.313446,263.001251 228.575775,263.234161 228.896057,263.727448 
	C208.963303,263.996307 188.972595,264.004791 168.296051,264.057251 
	C167.610229,264.101166 167.166138,264.082153 167.166138,264.082153 
	C167.166138,264.082153 167.080429,263.625092 167.074341,263.392639 
z"/>
<path fill="#FFD4D2" opacity="1.000000" stroke="none" 
	d="
M167.093170,264.077698 
	C167.166138,264.082153 167.610229,264.101166 167.831604,264.087646 
	C168.015503,276.714722 167.978043,289.355286 167.864578,302.454773 
	C167.540619,302.769653 167.343796,302.574127 167.104034,301.698853 
	C166.979355,288.703278 166.948761,276.335907 166.918167,263.968567 
	C166.918167,263.968567 167.020218,264.073212 167.093170,264.077698 
z"/>
<path fill="#FFC5C4" opacity="1.000000" stroke="none" 
	d="
M189.094910,159.576065 
	C189.174850,159.122437 189.589203,159.150879 189.795502,159.135376 
	C190.002380,171.093414 190.002960,183.066940 190.063980,195.717667 
	C190.124435,196.394867 190.091415,196.820297 190.091415,196.820297 
	C189.925095,196.844513 189.758759,196.868713 189.341339,196.872986 
	C189.065170,184.578598 189.040054,172.304138 189.094910,159.576065 
z"/>
<path fill="#D64344" opacity="1.000000" stroke="none" 
	d="
M166.655258,264.292419 
	C166.948761,276.335907 166.979355,288.703278 166.967819,301.539185 
	C166.615677,300.932648 166.031784,299.856018 166.037842,298.782715 
	C166.102097,287.393585 166.260132,276.005035 166.655258,264.292419 
z"/>
<path fill="#FFD8D1" opacity="1.000000" stroke="none" 
	d="
M216.275391,338.499207 
	C225.485458,338.182526 234.992340,338.166595 244.714371,338.517883 
	C235.477081,338.856750 226.024643,338.828369 216.275391,338.499207 
z"/>
<path fill="#CA3536" opacity="1.000000" stroke="none" 
	d="
M234.783020,498.674713 
	C232.155106,498.891113 229.298950,498.815186 226.210419,498.393311 
	C228.836960,498.159027 231.695877,498.270691 234.783020,498.674713 
z"/>
<path fill="#C14545" opacity="1.000000" stroke="none" 
	d="
M271.568237,332.244080 
	C271.840790,333.688477 271.900543,335.421997 271.871704,337.580200 
	C271.640533,336.181000 271.497986,334.357117 271.568237,332.244080 
z"/>
<path fill="#D64344" opacity="1.000000" stroke="none" 
	d="
M174.037735,310.313843 
	C174.609695,310.471710 175.217957,310.951355 175.923828,311.711334 
	C175.372330,311.539642 174.723175,311.087616 174.037735,310.313843 
z"/>
<path fill="#D64344" opacity="1.000000" stroke="none" 
	d="
M181.056793,317.283997 
	C181.627533,317.451050 182.235031,317.939636 182.931274,318.712891 
	C182.377869,318.533600 181.735703,318.069580 181.056793,317.283997 
z"/>
<path fill="#D64344" opacity="1.000000" stroke="none" 
	d="
M183.045685,319.299286 
	C183.610474,319.463898 184.218170,319.948242 184.924469,320.712952 
	C184.378250,320.535217 183.733414,320.077118 183.045685,319.299286 
z"/>
<path fill="#D64344" opacity="1.000000" stroke="none" 
	d="
M194.112946,330.198486 
	C194.305496,330.140625 194.601181,330.317566 194.970917,330.751373 
	C194.768661,330.816589 194.492371,330.624939 194.112946,330.198486 
z"/>
<path fill="#D64344" opacity="1.000000" stroke="none" 
	d="
M191.106262,327.184021 
	C191.307175,327.117615 191.616394,327.291809 192.002930,327.731140 
	C191.791672,327.805756 191.503113,327.615204 191.106262,327.184021 
z"/>
<path fill="#D64344" opacity="1.000000" stroke="none" 
	d="
M196.114090,332.134399 
	C196.319580,332.073090 196.626160,332.254211 196.995804,332.703857 
	C196.777649,332.773834 196.496414,332.575348 196.114090,332.134399 
z"/>
<path fill="#D64344" opacity="1.000000" stroke="none" 
	d="
M197.124451,333.177612 
	C197.319336,333.122833 197.608109,333.304108 197.963364,333.740204 
	C197.759338,333.801239 197.488846,333.607483 197.124451,333.177612 
z"/>
<path fill="#D64344" opacity="1.000000" stroke="none" 
	d="
M198.107483,334.202698 
	C198.298248,334.146881 198.590805,334.324219 198.956116,334.756348 
	C198.755661,334.819397 198.482483,334.627594 198.107483,334.202698 
z"/>
<path fill="#D64344" opacity="1.000000" stroke="none" 
	d="
M200.092880,336.204010 
	C200.282288,336.145752 200.576614,336.318359 200.945908,336.744080 
	C200.746521,336.809753 200.472153,336.622345 200.092880,336.204010 
z"/>
<path fill="#D64344" opacity="1.000000" stroke="none" 
	d="
M201.107834,337.211914 
	C201.296143,337.153748 201.589478,337.328369 201.964111,337.754761 
	C201.767899,337.819214 201.490372,337.631927 201.107834,337.211914 
z"/>
<path fill="#B84540" opacity="1.000000" stroke="none" 
	d="
M332.154236,158.912720 
	C332.007996,159.010513 331.935059,158.568008 331.894592,158.348541 
	C332.002899,158.357681 332.151703,158.586304 332.154236,158.912720 
z"/>
<path fill="#CA3536" opacity="1.000000" stroke="none" 
	d="
M235.741486,498.966187 
	C235.691757,499.145874 235.403793,499.307404 235.071167,499.225342 
	C235.026535,498.981750 235.503235,498.947968 235.741486,498.966187 
z"/>
<path fill="#D64344" opacity="1.000000" stroke="none" 
	d="
M193.098450,329.180298 
	C193.291580,329.122131 193.588623,329.299713 193.960999,329.733765 
	C193.758347,329.798889 193.480347,329.607452 193.098450,329.180298 
z"/>
<path fill="#D64344" opacity="1.000000" stroke="none" 
	d="
M168.095200,304.167053 
	C168.294724,304.113861 168.574387,304.305481 168.925903,304.746277 
	C168.723618,304.800934 168.449478,304.606415 168.095200,304.167053 
z"/>
<path fill="#D64344" opacity="1.000000" stroke="none" 
	d="
M189.092438,325.202637 
	C189.291809,325.139313 189.596893,325.311218 189.967896,325.747803 
	C189.755249,325.820953 189.476700,325.629395 189.092438,325.202637 
z"/>
<path fill="#D64344" opacity="1.000000" stroke="none" 
	d="
M187.110184,323.164917 
	C187.318008,323.097626 187.629181,323.275055 188.009216,323.722443 
	C187.789902,323.798126 187.501724,323.603851 187.110184,323.164917 
z"/>
<path fill="#D64344" opacity="1.000000" stroke="none" 
	d="
M185.109192,321.209167 
	C185.301254,321.148193 185.599869,321.320770 185.975830,321.750092 
	C185.774048,321.818787 185.494888,321.630737 185.109192,321.209167 
z"/>
<path fill="#D64344" opacity="1.000000" stroke="none" 
	d="
M180.118134,316.186279 
	C180.312622,316.126648 180.607422,316.300507 180.971329,316.730591 
	C180.766434,316.797821 180.492432,316.608795 180.118134,316.186279 
z"/>
<path fill="#D64344" opacity="1.000000" stroke="none" 
	d="
M179.112244,315.196411 
	C179.304382,315.134338 179.600510,315.304108 179.971893,315.727905 
	C179.770172,315.797333 179.493195,315.612793 179.112244,315.196411 
z"/>
<path fill="#D64344" opacity="1.000000" stroke="none" 
	d="
M178.102905,314.162537 
	C178.298798,314.106689 178.595764,314.289856 178.964066,314.732483 
	C178.758286,314.795105 178.481140,314.598328 178.102905,314.162537 
z"/>
<path fill="#D64344" opacity="1.000000" stroke="none" 
	d="
M176.113159,312.210754 
	C176.304840,312.147552 176.605560,312.317841 176.987701,312.744568 
	C176.786819,312.815430 176.504517,312.629852 176.113159,312.210754 
z"/>
<path fill="#D64344" opacity="1.000000" stroke="none" 
	d="
M173.107147,309.204285 
	C173.302612,309.145050 173.593750,309.317322 173.946594,309.744690 
	C173.739792,309.811798 173.471298,309.623779 173.107147,309.204285 
z"/>
<path fill="#D64344" opacity="1.000000" stroke="none" 
	d="
M172.107666,308.211273 
	C172.301468,308.148315 172.593719,308.316376 172.956635,308.736542 
	C172.753555,308.806549 172.479828,308.624420 172.107666,308.211273 
z"/>
<path fill="#D64344" opacity="1.000000" stroke="none" 
	d="
M171.090790,307.189575 
	C171.290024,307.126678 171.589401,307.299103 171.954208,307.731201 
	C171.743408,307.802246 171.467178,307.613556 171.090790,307.189575 
z"/>
<path fill="#D64344" opacity="1.000000" stroke="none" 
	d="
M169.108856,305.232788 
	C169.300217,305.168884 169.595810,305.335999 169.969040,305.756226 
	C169.768799,305.827484 169.490936,305.645630 169.108856,305.232788 
z"/>
<path fill="#FFFFFF" opacity="1.000000" stroke="none" 
	d="
M190.546890,196.902985 
	C190.091415,196.820297 190.124435,196.394867 190.103790,196.183014 
	C217.270172,196.041183 244.457214,196.111221 271.723022,196.619278 
	C244.868652,197.033432 217.935501,197.009552 190.546890,196.902985 
z"/>
</svg>