<svg xmlns="http://www.w3.org/2000/svg" version="1.1" xmlns:xlink="http://www.w3.org/1999/xlink" width="1500" height="129" viewBox="0 0 1500 129"><svg xml:space="preserve" width="1500" height="129" data-version="2" data-id="lg_88eFYYMsJaFZhdd9eG" viewBox="0 0 571 129" x="0" y="0"><rect width="100%" height="100%" fill="transparent"></rect><rect width="525.832" height="155.813" x="-262.916" y="-77.907" rx="0" ry="0" transform="translate(353.706 64.5)scale(.8056)"></rect><rect width="151.358" height="155.813" x="-75.679" y="-77.907" rx="0" ry="0" transform="translate(66.464 64.5)scale(.8056)"></rect><g transform="translate(350 64.535)"><filter id="a" width="140%" height="140%" x="-20%" y="-20%"><feGaussianBlur in="SourceAlpha"></feGaussianBlur><feOffset result="oBlur"></feOffset><feFlood flood-color="#F75CFF" flood-opacity="1"></feFlood><feComposite in2="oBlur" operator="in"></feComposite><feMerge><feMergeNode></feMergeNode><feMergeNode in="SourceGraphic"></feMergeNode></feMerge></filter><g filter="url(#a)"><path fill="#fff" d="M-2.1 28.185q-2.97 0-5.87-.93-2.91-.92-5.01-3.15l2.04-7.42q1.42 2.41 3.68 3.81 2.26 1.39 5.1 1.39 3.27 0 5.68-2.29 2.42-2.29 2.42-7.97v-39.81h7.04v40.36q0 5.5-2.1 9.06-2.1 3.55-5.53 5.25-3.43 1.7-7.45 1.7"></path></g></g><path fill="#d5e1ff" d="M94.666 79.46q.128-.265.144-.594V46.517a1.39 1.39 0 0 0-1.39-1.39H37.032c-.763 0-1.382.618-1.382 1.39v32.349q0 .321.136.603H29.06v2.234c0 .764.62 1.39 1.39 1.39h69.561c.764 0 1.382-.618 1.382-1.39v-2.234zm-29.44-33.578q.113 0 .217.048l.08.057.089.056.056.08.064.097a.563.563 0 0 1 0 .426q-.024.064-.08.112l-.04.064-.08.057-.089.056a.547.547 0 1 1-.217-1.045m-27.213 1.93h54.426v29.39H38.013zM68.69 81.848h-6.92a.55.55 0 1 1 0-1.101h6.912a.55.55 0 1 1 0 1.1"></path><path fill="#d5e1ff" d="M45.166 62.752v.988H61.11v-.988zm9.315 8.278h2.804v.988h-2.804zm7.972-8.278h2.805v.98h-2.805zm-5.762-1.616h2.805v.98H56.69zM41.67 49.506h2.804v.981H41.67zm0 8.279h2.804v.98H41.67zm0 3.351h2.804v.98H41.67zm0 1.616h2.804v.98H41.67zm0-3.311h4.685v.98H41.67zm3.496 1.695H55.34v.98H45.166zm-3.496 3.271h2.804v.98H41.67zm0 3.312h2.804v.98H41.67zm26.481-3.312h2.805v.98h-2.805zm-22.985 0h22.31v.98h-22.31zm-3.496 1.656h22.334v.98H41.67zm3.496 1.656h18.838v.98H45.166zm-3.496 1.655h13.67v.98H41.67zm0 1.656h11.468v.988H41.67zm0 1.655h5.73v.989h-5.73zm0 1.664h4.685v.98H41.67zm0-23.187h6.984v.98H41.67zm0 1.656h9.314v.98H41.67zm0 1.656h6.984v.98H41.67zm0 1.655h6.984v.98H41.67zm-1.52-6.622h.852v.98h-.851zm0 1.655h.852v.98h-.851zm0 1.656h.852v.98h-.851zm0 1.656h.852v.98h-.851zm0 1.655h.852v.98h-.851zm0 1.656h.852v.98h-.851zm0 1.656h.852v.98h-.851zm0 1.655h.852v.98h-.851zm0 1.656h.852v.98h-.851zm0 1.655h.852v.98h-.851zm0 1.656h.852v.98h-.851zm0 1.656h.852v.98h-.851zm0 1.655h.852v.98h-.851zm0 1.656h.852v.988h-.851zm0 1.655h.852v.989h-.851zm0 1.664h.852v.98h-.851z"></path></svg></svg>