<svg version="1.1" id="Layer_1" xmlns="http://www.w3.org/2000/svg" xmlns:xlink="http://www.w3.org/1999/xlink" x="0px" y="0px"
	 width="308.7612359841165" height="304.915625" viewBox="0 0 1024 768" enable-background="new 0 0 1024 768" xml:space="preserve">
<path fill="#000000" opacity="1.000000" stroke="none" 
	d="
M233.907578,240.833893 
	C232.525955,248.564178 227.771683,254.811172 224.606705,261.751984 
	C222.934799,265.418488 222.444565,269.978943 218.109909,272.009369 
	C217.762543,280.185303 211.430649,286.108337 209.915009,293.867401 
	C208.046371,303.433533 206.091141,312.984436 204.027969,322.510468 
	C201.490036,334.228485 202.203278,345.873108 204.764420,357.440002 
	C205.873352,362.448303 211.680374,366.690948 216.859680,366.693970 
	C279.853302,366.730865 342.846924,366.721436 405.840454,366.804840 
	C409.984406,366.810333 412.895355,365.460632 414.596527,361.597382 
	C416.197784,357.960999 419.418549,355.237579 420.330627,351.153748 
	C420.785980,349.114838 422.959412,348.748260 424.648651,348.130890 
	C428.119263,346.862457 429.512817,344.329742 429.428375,340.787048 
	C428.010590,281.304260 429.064758,221.814514 428.997223,162.328110 
	C428.991058,156.914703 428.408295,152.125122 423.918365,148.417450 
	C422.455719,147.209671 421.120209,145.502106 421.453827,143.324432 
	C422.516022,141.407272 424.261749,142.826660 425.754639,142.227798 
	C425.338593,138.584106 422.351379,137.350891 419.012543,135.339340 
	C420.487183,138.471268 419.279419,139.617905 416.689423,139.491074 
	C414.202698,139.369308 411.248138,140.080658 409.332520,139.362000 
	C402.548615,136.817047 396.793823,141.909592 390.383850,141.094238 
	C388.691681,140.878998 387.157684,141.880753 385.780945,142.827194 
	C382.055206,145.388443 378.061646,146.600754 373.496704,145.841782 
	C372.229309,145.631073 370.690155,145.639679 369.571106,146.170456 
	C357.956970,151.679260 344.292603,151.658844 333.551666,159.548782 
	C332.560455,160.276901 331.049805,160.297913 330.093719,160.561020 
	C327.708191,159.895813 329.316681,157.575607 327.519073,156.486542 
	C319.175446,159.045349 311.509003,163.535568 303.449432,168.784378 
	C306.780243,169.381424 309.175293,166.002350 312.606445,168.184891 
	C308.149231,172.166245 304.936707,177.156570 298.483704,177.645813 
	C297.059509,175.237869 298.714905,173.807434 299.886597,172.198029 
	C295.099548,170.599243 293.612732,175.193588 290.670135,176.960602 
	C287.706055,178.740540 286.019623,182.573288 281.618958,182.748550 
	C281.305847,179.543655 283.796204,178.597992 285.374908,177.191940 
	C291.363617,171.858109 298.532562,168.174454 304.950745,163.468231 
	C316.326813,155.126511 328.799286,149.015366 341.733765,143.632492 
	C343.790649,142.776505 345.894043,141.251297 347.164825,139.460037 
	C349.383484,136.332657 352.250000,135.270599 355.813232,135.532791 
	C355.440247,130.503967 357.164337,129.069809 361.522705,131.159790 
	C366.264343,133.433578 370.695007,133.219696 375.479248,131.504715 
	C379.527130,130.053665 383.697784,129.631104 388.164642,129.708755 
	C393.975159,129.809799 399.867371,128.398865 405.629211,127.186089 
	C411.093170,126.036011 415.624908,126.452217 420.638123,129.794266 
	C424.934448,132.658386 429.572845,134.396729 431.500214,139.828217 
	C432.412720,142.399796 433.425385,144.902817 432.960754,147.552994 
	C431.825867,154.026855 435.187988,159.115219 437.788055,164.452103 
	C438.500793,165.915039 439.823212,167.068970 441.420258,166.075378 
	C446.392273,162.981995 452.037262,161.066650 455.313843,155.313080 
	C457.790619,150.963867 459.926239,146.663010 461.475555,141.913712 
	C463.161743,136.744751 467.131134,133.570038 472.108063,131.410538 
	C484.367828,126.090958 497.220398,125.938942 510.227692,126.490677 
	C513.528687,126.630684 514.098999,129.800262 516.446289,131.050644 
	C523.468872,134.791489 531.560486,134.300827 538.783752,137.188477 
	C541.976807,138.464966 545.694580,138.361984 548.403564,140.977768 
	C549.431458,141.970261 550.929382,142.168610 552.184326,141.851746 
	C557.556885,140.495178 562.390259,142.598648 567.281738,144.085068 
	C577.405457,147.161392 587.820557,148.237564 598.301025,148.899353 
	C603.048706,149.199142 607.666809,150.240143 611.654907,152.672318 
	C617.184814,156.044800 623.167419,156.826614 629.360291,157.069229 
	C638.737976,157.436615 648.095398,157.642685 655.255432,165.259598 
	C656.376953,166.452652 658.526001,166.949753 660.284973,167.224487 
	C666.213623,168.150558 669.184814,172.037613 670.833679,177.300751 
	C673.760986,186.644821 675.325439,196.403503 680.216797,205.150711 
	C681.896729,208.154892 681.423035,212.075836 680.855164,215.502747 
	C679.782715,221.974121 680.226379,228.467468 679.929443,234.947342 
	C679.596313,242.218384 681.167114,248.943115 685.507568,254.731934 
	C689.323792,259.821472 690.352173,265.671906 690.869812,271.622101 
	C691.571960,279.693237 694.453186,287.095795 697.030945,294.615540 
	C699.510742,301.849365 702.628235,308.844818 702.173889,316.863068 
	C701.924316,321.267090 705.370178,325.120972 705.013977,329.858887 
	C704.739563,333.508453 705.241577,337.152374 702.713074,340.324554 
	C701.525330,341.814667 701.035583,343.681946 702.631775,345.326660 
	C704.380615,347.128723 704.312866,349.376190 703.849792,351.446289 
	C702.074097,359.384857 700.691406,367.436646 692.551636,372.136871 
	C688.248901,374.621429 685.999023,387.688263 688.358582,392.296600 
	C688.960754,393.472687 690.021851,393.870056 691.094177,394.299591 
	C695.025574,395.874268 696.873291,399.205597 696.702148,402.989532 
	C696.348145,410.820862 700.297852,417.396210 702.216736,424.543274 
	C705.089966,435.244568 709.678955,445.561432 709.971252,456.828766 
	C710.176270,464.729767 719.230225,472.602448 725.511536,470.995056 
	C728.891113,470.130188 731.574463,468.377014 734.160278,466.252625 
	C735.569824,465.094574 737.001282,463.963013 738.431885,462.830780 
	C746.030518,456.816925 754.205627,455.828278 763.245361,459.407013 
	C766.950256,460.873688 771.075256,460.962830 775.061523,459.879089 
	C780.253052,458.467743 783.704651,455.621155 785.024170,449.974609 
	C786.785522,442.437805 788.027649,434.554688 795.027954,429.383575 
	C805.245972,421.835541 816.406738,420.896362 828.155518,424.377747 
	C835.234436,426.475372 842.053467,435.813202 842.017212,443.150879 
	C841.973328,452.034607 843.458435,460.701263 844.823059,469.431000 
	C847.015381,483.455017 846.393066,497.682007 846.918152,511.808929 
	C847.529419,528.253906 848.070435,544.823608 844.901489,561.119019 
	C843.749939,567.040588 842.140320,573.111084 836.382751,576.763245 
	C835.626587,577.242920 834.920532,578.317261 834.799133,579.199829 
	C833.889343,585.814270 829.524780,591.338379 828.937500,598.035583 
	C828.818848,599.388672 828.638794,600.599854 826.984192,601.120544 
	C819.871643,603.359131 813.806458,607.562866 807.909119,611.907227 
	C799.580933,618.042358 791.060303,623.510315 780.305359,624.014099 
	C777.612976,624.140198 774.857422,624.494080 773.636353,621.141479 
	C773.109558,619.695007 771.969421,619.215637 770.445496,619.335754 
	C769.646301,619.398804 768.289490,619.425354 768.089966,619.021301 
	C763.952271,610.640381 753.488098,612.372498 747.932983,606.332214 
	C747.714172,606.094299 747.378723,605.966187 747.107056,605.773621 
	C745.659668,604.747742 744.506348,603.506226 745.238159,601.594543 
	C746.132507,599.258301 747.869751,601.818054 749.156311,601.017212 
	C749.873657,599.343994 749.907776,597.126526 752.390137,596.249695 
	C755.553345,598.618652 756.173950,601.174927 752.482361,604.384155 
	C758.089966,606.580017 762.457092,610.414246 768.853577,606.076172 
	C771.436462,604.324463 776.463196,604.007507 779.832825,607.591309 
	C783.380981,611.364929 787.704651,611.545776 791.005737,607.657166 
	C794.122864,603.985413 797.286865,604.647339 800.113586,607.014160 
	C802.661377,609.147278 805.098999,608.787292 806.795593,607.122681 
	C809.094177,604.867432 814.611450,606.175171 813.698792,599.801025 
	C813.228210,596.514038 816.306702,592.530823 819.432068,590.473022 
	C821.799561,590.273254 820.562622,592.611267 822.280579,592.877869 
	C823.591797,590.872437 825.807068,589.217285 825.560730,586.225403 
	C823.700806,585.556213 823.740112,588.225891 822.022400,587.750916 
	C821.921631,587.422180 821.603394,586.950989 821.685547,586.565063 
	C822.510559,582.692566 822.808228,578.865295 821.931396,574.914307 
	C821.086548,571.107544 823.855835,566.588318 827.584961,565.701782 
	C829.929077,565.144714 829.824219,563.643005 829.829773,561.954285 
	C829.966736,520.353088 830.057007,478.751617 830.326660,437.151276 
	C830.349915,433.565460 829.246521,432.035706 825.818848,432.510986 
	C820.171692,433.294067 814.505615,433.152618 808.850037,432.995178 
	C804.541077,432.875244 803.101624,434.630402 803.122192,438.947479 
	C803.292297,474.609772 803.067749,510.275360 803.477417,545.934021 
	C803.564575,553.518799 801.537537,561.002380 803.074768,568.714111 
	C803.497498,570.834656 799.808105,573.287720 799.423828,577.040894 
	C800.744141,575.859009 801.714722,574.990112 802.786194,574.030945 
	C803.113892,574.472534 803.591492,574.825012 803.640320,575.229309 
	C803.951233,577.803955 802.400635,579.372009 800.822021,581.226257 
	C796.838379,585.905457 790.730469,587.920166 786.957031,592.857788 
	C785.436768,594.847046 777.877869,593.435913 775.605042,590.704163 
	C773.872375,588.621582 772.161255,588.169434 769.550354,588.436707 
	C765.288879,588.872925 762.013306,586.002502 758.837646,583.792969 
	C756.325806,582.045349 758.669189,579.819458 759.729370,577.838440 
	C753.166931,582.874207 753.531372,592.192505 747.547058,597.498962 
	C745.899292,596.606140 745.724915,595.217468 746.148926,593.945312 
	C748.169006,587.883484 747.218872,581.348877 749.325867,575.275330 
	C750.593079,571.622375 748.420959,568.955872 745.267334,567.706665 
	C738.341248,564.963074 732.542603,561.004944 727.525085,555.364075 
	C721.357178,548.429871 711.482971,551.834595 709.117371,560.129883 
	C705.904541,571.396179 705.164917,583.080627 702.957703,594.513184 
	C702.514526,596.808655 702.216370,599.098083 701.255615,601.258789 
	C700.209473,603.611572 698.178162,604.289673 695.932434,604.203003 
	C693.433167,604.106506 693.240540,601.794006 693.125305,600.121216 
	C692.633667,592.981140 692.128540,585.824524 692.105530,578.672424 
	C691.943481,528.345093 692.192017,478.013733 691.554321,427.693207 
	C691.436584,418.402130 687.136841,409.560516 678.649597,403.921295 
	C677.402588,403.092712 676.014587,402.424500 674.412903,402.850433 
	C666.130127,405.052948 657.336853,404.216431 649.162903,407.172272 
	C646.218384,408.237061 643.215027,408.297424 639.938110,408.043274 
	C636.811707,407.800781 633.996094,411.022980 630.547363,411.855957 
	C625.071838,413.178558 619.760437,415.165771 614.329712,416.694489 
	C610.984497,417.636169 609.733459,416.762299 608.681030,412.201721 
	C604.792480,419.749542 597.096741,417.533356 591.609436,420.701294 
	C588.884216,422.274597 585.945068,423.477173 582.710510,425.036469 
	C585.526978,429.462891 583.680176,431.587311 579.195618,432.604797 
	C577.825317,432.915680 576.646545,434.119781 575.408691,434.957062 
	C568.208374,439.827087 568.211243,439.831360 561.097107,438.855530 
	C561.257751,440.526184 563.509766,439.964111 563.845581,441.779480 
	C564.029175,443.505188 557.724487,447.900909 555.768188,446.478577 
	C551.206360,443.161957 549.308044,447.154144 546.590576,449.050323 
	C545.236267,449.995361 543.987732,451.091949 542.811279,452.024902 
	C544.069519,454.126434 544.932068,452.229340 546.207092,453.021179 
	C546.534546,455.491241 544.776428,457.407745 543.157288,459.011810 
	C536.319275,465.786133 529.300781,472.378296 522.347168,479.035919 
	C521.740173,479.617157 521.126038,480.128021 520.177002,480.049286 
	C514.748840,479.598999 511.983337,483.543732 508.408478,487.044647 
	C512.624329,490.826569 510.493652,494.282623 507.814819,497.377930 
	C503.044189,502.890167 500.941559,510.294281 495.048828,515.023865 
	C493.905762,515.941345 493.136719,517.735901 491.500366,517.225098 
	C487.597168,516.006836 487.661316,519.184814 486.516693,521.136902 
	C491.590637,524.731567 489.028137,528.415710 481.766327,540.004272 
	C480.759521,541.611023 480.618134,541.522461 477.968567,539.417664 
	C477.140137,542.538513 473.897095,544.756165 477.460541,548.784058 
	C478.889771,550.399475 477.545441,555.306824 476.337616,558.254395 
	C473.170898,565.982483 470.934265,574.084534 469.532043,582.115051 
	C467.413635,594.247131 462.321411,606.308350 466.194397,619.032227 
	C466.431519,619.811096 466.687347,621.155762 467.099335,621.222656 
	C471.869080,621.997742 472.421051,626.635620 474.880432,629.492493 
	C476.728882,631.639771 479.224945,631.745911 481.747040,631.754272 
	C492.412384,631.789612 503.077820,631.814270 513.743225,631.822754 
	C560.571777,631.859863 607.400391,631.887512 654.228943,631.925903 
	C659.060791,631.929871 663.925537,631.738953 668.682129,632.714966 
	C673.650208,633.734314 678.614197,632.228027 683.360046,631.795410 
	C686.558716,631.503845 689.399231,625.886230 692.103210,622.419617 
	C692.908936,621.386597 691.419678,620.362366 690.413879,619.786926 
	C687.702393,618.235840 688.481873,616.230286 689.725708,614.283203 
	C690.908325,612.432007 692.678406,611.422119 694.851929,612.333557 
	C697.307190,613.363281 696.876282,615.494629 696.301575,617.476807 
	C695.566040,620.013611 694.653198,622.436890 694.748047,625.216064 
	C694.831909,627.674011 693.216309,629.724976 691.099609,630.853394 
	C686.513977,633.297852 682.627686,637.154297 676.668701,636.883362 
	C674.588501,636.788757 672.291870,638.986267 670.273560,640.394287 
	C656.449280,650.038818 640.528687,652.531738 624.351990,652.864075 
	C603.880493,653.284668 583.472778,650.967102 563.049500,649.657898 
	C548.582825,648.730469 534.109131,649.048401 519.639709,648.750305 
	C508.343536,648.517578 496.995087,648.920349 485.787811,646.906067 
	C483.103241,646.423462 480.872375,645.284424 478.739288,643.468567 
	C474.559937,639.910706 469.566376,637.825745 464.375153,635.971436 
	C457.943329,633.673950 452.978973,629.421631 450.796814,622.598633 
	C450.349274,621.199341 450.480408,619.601807 449.273346,618.335144 
	C446.395905,618.644592 443.572449,619.336426 440.502899,619.051025 
	C436.855804,618.711914 435.032410,621.901550 433.979126,624.900635 
	C432.014008,630.496277 428.893372,635.298279 425.204193,639.873718 
	C423.307770,642.225647 421.188385,644.194336 418.235168,644.176697 
	C411.230591,644.135010 404.329132,645.838318 397.181091,643.084290 
	C389.187317,640.004395 381.007050,637.062866 371.809601,638.767761 
	C365.875397,639.867859 359.968475,636.761230 354.485687,634.657349 
	C348.313873,632.289062 341.928406,631.579895 335.644379,630.252808 
	C327.354645,628.502258 321.400574,624.185913 317.751953,616.646667 
	C316.835449,614.752808 315.598907,613.306213 313.756531,612.356079 
	C306.201630,608.459717 299.370880,603.440857 292.609161,598.368652 
	C288.791168,595.504639 284.642975,593.655457 280.182312,592.170288 
	C276.077209,590.803528 271.994263,589.201416 269.695557,585.072632 
	C269.614838,584.927673 269.510437,584.672424 269.420197,584.673828 
	C263.123840,584.768188 261.516815,577.705139 256.364105,576.125671 
	C254.331085,575.502563 253.267975,574.305664 253.104187,572.240601 
	C252.482315,564.400452 246.683746,560.022034 241.651306,555.139221 
	C240.947113,554.455933 239.557419,553.986694 239.441650,553.264954 
	C238.157806,545.261414 230.465912,541.312561 227.562866,534.100403 
	C225.794983,529.708435 220.969498,526.449585 217.237335,522.983398 
	C215.089905,520.988953 213.542648,518.803284 212.388031,516.155518 
	C208.598389,507.465149 204.289764,499.031677 199.559723,490.811584 
	C198.994980,489.830109 198.171906,488.417542 198.488663,487.600128 
	C201.050308,480.989868 196.175430,477.135498 193.045975,472.773376 
	C190.750320,469.573486 189.839783,466.396118 190.468704,462.500488 
	C191.360779,456.974945 191.131638,451.508453 187.977493,446.569397 
	C187.127670,445.238617 187.302307,443.691589 186.926514,442.291718 
	C185.699997,437.722809 189.024506,432.285706 183.644699,428.313354 
	C181.998779,427.098022 181.876251,422.722321 183.860092,420.877380 
	C187.132126,417.834473 187.398514,413.835876 188.664108,410.145996 
	C190.106171,405.941681 191.290939,401.917908 195.082214,398.772430 
	C200.146591,394.570618 199.538345,389.770020 196.662292,383.449768 
	C194.164047,377.959839 192.347748,372.085968 189.914139,366.497040 
	C187.496704,360.945251 187.005707,354.952423 183.730911,349.309570 
	C180.817139,344.288879 181.767380,336.139893 185.078934,330.465942 
	C190.753693,320.742889 192.674103,310.051117 195.248016,299.456116 
	C195.364807,298.975372 195.480103,298.445618 195.762466,298.060760 
	C203.317963,287.763824 204.513611,274.403687 211.639328,264.105652 
	C216.727554,256.752258 219.974487,248.505219 224.972458,241.113846 
	C230.375793,233.122986 237.133163,226.101242 241.660843,217.518784 
	C243.496399,214.039352 246.713654,211.775192 249.399536,209.087219 
	C256.425629,202.055634 263.821228,195.405914 270.585205,188.091248 
	C272.914185,185.572617 275.868225,183.218582 280.988892,183.674133 
	C273.932648,192.750259 264.691071,198.273178 257.743835,206.586502 
	C260.448120,208.852814 260.234344,210.878174 257.752960,213.364014 
	C255.556763,215.564148 254.171188,218.552582 252.271301,221.075195 
	C250.350769,223.625275 248.201645,224.849411 246.110336,220.764938 
	C243.421265,224.022903 240.090958,226.165802 238.917007,230.763077 
	C236.059326,234.001480 233.487503,236.657562 233.907578,240.833893 
M568.379456,159.545639 
	C571.051270,161.195312 572.931763,164.386627 578.066101,164.046295 
	C574.154297,161.622223 571.552612,159.450089 567.534790,158.508423 
	C560.842712,154.383224 560.710022,154.373306 559.722717,158.573822 
	C558.726990,156.370377 553.520142,158.907166 555.739807,153.769455 
	C556.055115,153.039688 554.426758,152.307327 553.445435,152.475693 
	C545.153320,153.898148 537.735596,150.820541 529.997498,148.607742 
	C523.942505,146.876251 518.316956,143.690491 511.316650,144.223297 
	C507.668732,144.500931 503.129150,144.486801 499.231110,143.059906 
	C492.969360,140.767792 486.578705,138.989609 479.919067,140.372208 
	C476.210114,141.142197 474.709106,140.255646 475.461639,136.438812 
	C469.178070,137.946686 465.903839,142.032791 464.729065,147.527618 
	C463.906128,151.376694 463.953979,155.454620 463.954895,159.430283 
	C463.961029,186.585556 464.186707,213.741272 464.093414,240.895996 
	C463.969788,276.876282 464.713593,312.861328 463.590973,348.836182 
	C463.496338,351.867950 465.127380,353.617767 467.257111,355.473480 
	C471.568451,359.230164 477.446625,360.608704 481.445801,364.446533 
	C485.282806,368.128723 489.468842,368.660736 494.182556,368.625458 
	C518.999634,368.439758 543.816711,368.119781 568.633789,368.121857 
	C603.099731,368.124756 637.565613,368.384613 672.031677,368.491821 
	C674.864380,368.500641 677.536682,368.088837 679.877747,365.968811 
	C684.486023,361.795593 689.676880,358.861023 691.943420,351.884674 
	C693.516907,347.041626 693.921753,342.989075 691.777649,339.261353 
	C689.753113,335.741455 688.627747,332.290863 688.698547,328.478699 
	C688.845032,320.594299 687.290344,313.367035 682.164429,307.106720 
	C680.973328,305.651978 681.142578,303.665771 681.335022,301.798035 
	C681.774658,297.532013 681.413696,293.500000 677.931396,290.355408 
	C676.346680,288.924377 675.987183,286.990417 675.971680,284.892670 
	C675.939453,280.522339 675.312744,275.519531 672.959167,272.535217 
	C669.227722,267.803864 668.154175,262.042023 664.948364,257.257233 
	C664.206482,256.149933 662.956421,254.703171 664.119812,253.148590 
	C665.629700,251.130997 666.922546,254.124878 668.699341,253.458420 
	C667.492004,250.337585 666.357422,247.573257 662.402649,250.279648 
	C648.155273,231.736832 632.434021,214.592941 620.432739,194.829269 
	C619.957092,197.890350 618.046326,197.585251 615.559570,196.791412 
	C611.193481,195.397690 609.382507,191.357895 606.523438,188.446091 
	C598.232178,180.001938 587.308472,175.560516 577.772644,169.028961 
	C573.530701,166.123413 567.894958,165.002502 565.013062,159.846390 
	C566.166138,159.518570 567.084290,159.257538 568.379456,159.545639 
M311.500031,403.287567 
	C285.843079,403.277924 260.183868,403.070984 234.530365,403.363464 
	C225.293045,403.468781 215.450302,400.620544 207.817932,407.533508 
	C205.238113,406.696655 206.967743,404.510376 205.626450,403.614166 
	C203.744354,404.375000 201.569611,404.599548 201.073593,407.403595 
	C204.741760,408.214020 204.179916,410.459808 202.849991,412.958008 
	C200.419662,417.523132 200.372635,421.974854 202.667892,426.764282 
	C204.542847,430.676758 204.856293,435.162140 204.463577,439.446899 
	C203.584198,449.041656 205.839615,458.814209 210.093018,466.329742 
	C215.498688,475.881195 214.171936,486.267487 217.936310,495.664307 
	C218.204849,496.334686 217.850082,497.254730 217.785873,498.049652 
	C215.932373,498.015900 216.196625,495.244049 213.828629,495.805420 
	C216.362000,502.082520 218.982437,508.167175 222.885254,514.543640 
	C223.919754,511.841400 221.592270,510.817902 222.686371,509.124298 
	C225.043396,508.991150 226.307449,510.484558 227.036606,512.408569 
	C227.758636,514.313721 229.056686,515.392334 230.894226,515.996338 
	C233.587265,516.881531 234.391830,518.723389 234.921692,521.544250 
	C235.703476,525.706482 237.279037,529.624878 240.383606,533.059021 
	C245.726379,538.969116 251.423508,544.758850 256.034882,551.084229 
	C260.008179,556.534363 263.046143,562.358154 269.197388,565.758423 
	C272.308075,567.477905 274.775238,569.858826 276.227936,573.271912 
	C276.947266,574.961914 278.562958,576.050415 280.244781,576.886353 
	C285.525696,579.510925 289.623718,583.668701 294.127075,587.345703 
	C304.439270,595.765503 315.287750,603.498169 327.699066,608.580017 
	C335.583130,611.808105 344.633850,612.150879 351.357269,618.312378 
	C352.110413,619.002563 353.543823,619.063171 354.687347,619.196960 
	C364.222198,620.313049 373.527374,622.557129 382.860046,624.710999 
	C385.862366,625.403992 387.794464,627.736084 391.139923,628.371033 
	C398.907379,629.845337 405.851501,626.108582 413.301666,626.359619 
	C415.305145,626.427185 418.346466,625.896423 419.203766,624.551636 
	C422.916107,618.728516 428.222321,614.162292 428.131531,605.784119 
	C427.613708,557.974792 427.852203,510.157532 427.776520,462.343018 
	C427.751770,446.711151 427.650940,431.077820 427.371490,415.449005 
	C427.300629,411.484375 425.207031,408.169067 422.130585,405.610840 
	C419.731171,403.615570 417.270874,401.859772 414.900177,406.281677 
	C411.617645,402.144440 407.388397,403.044556 403.463684,403.048615 
	C373.142426,403.079865 342.821259,403.198303 311.500031,403.287567 
M454.642639,433.519501 
	C457.470276,432.968109 459.464783,431.376068 460.607300,428.729553 
	C464.391968,419.962402 471.183228,414.107910 478.926605,408.873413 
	C486.403198,403.819305 487.815674,395.240143 489.783936,387.190430 
	C489.988220,386.354950 489.453857,385.224670 489.007996,384.362640 
	C485.575623,377.727020 479.735229,374.212463 472.864685,372.064636 
	C471.802765,371.732727 471.035034,372.082062 470.171051,372.778717 
	C464.718353,377.175446 458.800934,375.192932 456.946075,368.274506 
	C456.086578,365.068542 455.555023,361.769043 454.983429,358.492950 
	C454.348511,354.853790 451.640381,352.872101 448.637970,353.562347 
	C445.454407,354.294220 443.782166,352.954895 441.545288,351.531433 
	C436.518127,348.332245 433.905396,349.626343 433.315460,355.612366 
	C433.054382,358.261383 432.071228,360.253265 430.343658,362.236145 
	C427.707031,365.262421 425.008209,368.136932 421.598724,370.307800 
	C419.740295,371.491119 418.616699,373.159760 419.792633,375.365723 
	C422.285248,380.041656 423.311249,385.275452 426.180389,389.911560 
	C428.547028,393.735657 431.877747,397.684387 431.930054,402.424469 
	C432.045502,412.888245 434.387146,421.981628 442.572937,429.446136 
	C446.120239,432.680878 449.118286,434.773590 454.642639,433.519501 
M447.145844,591.299072 
	C447.368011,592.790588 447.523651,594.339661 449.985565,594.202271 
	C451.398315,591.437439 451.891754,588.732422 449.618103,585.991028 
	C447.050842,586.833740 447.267487,588.783325 447.145844,591.299072 
M304.936646,600.804688 
	C304.594574,600.483948 304.270386,599.992798 303.787659,600.604858 
	C303.722717,600.687134 303.782990,600.972717 303.879700,601.062927 
	C307.192780,604.155029 311.149048,605.997498 315.377869,607.316711 
	C312.716949,604.071106 308.705872,603.201660 304.936646,600.804688 
M219.439041,261.434875 
	C219.302811,262.270416 218.125061,263.030945 219.308350,264.061188 
	C222.701157,262.082764 222.146149,258.472778 222.658920,255.294266 
	C221.685562,257.150909 220.712189,259.007538 219.439041,261.434875 
M698.384460,351.900299 
	C698.057739,350.805725 697.730957,349.711151 697.144165,347.745392 
	C696.342285,349.980164 695.823669,351.181549 695.486755,352.431854 
	C695.141235,353.714386 695.594177,354.889130 696.988892,354.988373 
	C698.689758,355.109375 698.478577,353.649597 698.384460,351.900299 
z"/>
<path fill="#000000" opacity="1.000000" stroke="none" 
	d="
M234.230148,240.719193 
	C233.487503,236.657562 236.059326,234.001480 238.910858,231.110474 
	C242.601059,233.245911 239.530045,235.342361 238.655579,237.391647 
	C237.945053,239.056808 236.204437,239.886078 234.230148,240.719193 
z"/>
</svg>